<svg id="Layer_1" data-name="Layer 1" xmlns="http://www.w3.org/2000/svg" xmlns:xlink="http://www.w3.org/1999/xlink" viewBox="0 0 1920 1080">
  <defs>
    <style>
      .cls-1 {
        fill: url(#linear-gradient);
      }

      .cls-2 {
        fill: #27546b;
      }

      .cls-3 {
        fill: url(#New_Gradient_Swatch_1);
      }

      .cls-4 {
        fill: url(#New_Gradient_Swatch_1-2);
      }

      .cls-5 {
        fill: #467f8e;
      }

      .cls-6 {
        fill: #007991;
      }

      .cls-7 {
        fill: url(#New_Gradient_Swatch_1-3);
      }

      .cls-8 {
        fill: url(#New_Gradient_Swatch_1-4);
      }

      .cls-9 {
        fill: #78ffd6;
      }
    </style>
    <linearGradient id="linear-gradient" y1="539.85" x2="1919.99" y2="539.85" gradientUnits="userSpaceOnUse">
      <stop offset="0" stop-color="#78ffd6"/>
      <stop offset="1" stop-color="#007991"/>
    </linearGradient>
    <linearGradient id="New_Gradient_Swatch_1" data-name="New Gradient Swatch 1" x1="188.91" y1="621.88" x2="1919.99" y2="621.88" gradientUnits="userSpaceOnUse">
      <stop offset="0" stop-color="#007991"/>
      <stop offset="1" stop-color="#78ffd6"/>
    </linearGradient>
    <linearGradient id="New_Gradient_Swatch_1-2" x1="0" y1="226.97" x2="1008.23" y2="226.97" xlink:href="#New_Gradient_Swatch_1"/>
    <linearGradient id="New_Gradient_Swatch_1-3" x1="368.19" y1="986.06" x2="705.58" y2="986.06" xlink:href="#New_Gradient_Swatch_1"/>
    <linearGradient id="New_Gradient_Swatch_1-4" x1="0" y1="111.97" x2="251.02" y2="111.97" xlink:href="#New_Gradient_Swatch_1"/>
  </defs>
  <title>background</title>
  <rect class="cls-1" width="1920" height="1079.7"/>
  <g>
    <polygon class="cls-2" points="1336.7 889.8 1335.5 890.7 1336.5 889.6 1336.7 889.8"/>
    <path class="cls-3" d="M1920,998.7v54.5l-1-.2h-.2l-288.2-37.7-52.7-8.3c-246.1-39.7-490.4-86.5-732.2-145.5l-50.2-12.4a44,44,0,0,0,11.5,11,46.2,46.2,0,0,0,8.8,4.6h.3c70.3,27.1,139.7,56.5,210,83.8l.6.2c46.2,17.9,92.8,35,140.2,49.9,79.7,25,255.3,81,255.3,81s-589.7,1.5-600-2.2C661,1020.3,500.1,942.9,368.8,838.7c-109.2-86.8-189-188.3-179.1-326.3,8.8-120.1,60.8-222.4,171.9-296,18.5-12.2,69-37.8,99.3-47.2h.1a91.1,91.1,0,0,1,12.4-3c41.6-6.5,124.3-1.8,199,36.5h.3c30.4,15.6,59.3,36.8,83.8,64.9,0,.1.2.3.2.4a257.3,257.3,0,0,1,31.5,45.6c7.8,14.4,25,4.1,41.6-.2s18,7,35.1,7.4c.4,2.4.6,4.9.8,7.3.5,4.1.9,8.4,2.3,12.3,37,111.4,2.9,190.9-108.6,251.4-10.3,5.6-21.9,9.4-32.9,14.1,109.4-88.4,105.3-193.6,103.3-193.9,0,0-6.2,51.8-60.5,116.3.3-3.1,6-27.2,8.1-40.7,13.4-86.7-20.5-142.7-73.1-167-83.9-38.8-179.5-30.4-233.9,25.9C381.8,438.3,370,556.4,493.1,646.1,582,710.8,684.7,751.5,790.7,786.9c168.3,56.1,343,90.7,518.2,123.4Z"/>
    <path class="cls-4" d="M987.5,415.3c-6.8-32.8-10.7-57.7-17.4-82-27-97.5-75.2-182.8-175.1-237.7C717.1,52.9,632,42.4,542.7,51,295.9,74.8,140.2,206.3,33,394.8c-11.2,19.6-22,39.4-33,59.1V266.3C86.3,181.3,182.9,107.6,297.3,54c40.5-19,82.2-36,123.3-54H868.4c22.5,18.2,48.9,40.6,83.9,86.7C1026.2,184.1,1014.4,297.1,987.5,415.3Z"/>
    <path class="cls-5" d="M251.5,944.3h-.3a.8.8,0,0,1-.2-.4Z"/>
    <path class="cls-6" d="M420.6,0c-41.1,18-82.8,35.1-123.3,54C182.9,107.6,86.3,181.3,0,266.3V223.9c7.9-8.3,16.3-16.3,23.6-25C88.1,122.3,162.6,54.8,251,0Z"/>
    <path class="cls-6" d="M1920,1079.7H1422.2c-.3,0-186.5-55.6-260.7-81.9C1041.1,955.2,848.2,887.1,792.7,852c-1.8-1.2-.4-3.7,1.8-3.1,272.7,68.1,557.7,122.8,836.1,166.4l289.4,37.9Z"/>
    <path class="cls-7" d="M705.6,1079.1h-135c-50.3-40-74.1-57.9-123.1-99-21.1-17.7-65.9-62.3-79.3-87.1,10.8,7.6,21.8,19.7,64.6,46.5C509.3,987.4,696,1074,705.6,1079.1Z"/>
    <path class="cls-8" d="M251,0C162.6,54.8,88.1,122.3,23.6,198.9c-7.3,8.7-15.7,16.7-23.6,25V163.4C53.2,99.6,117.4,45.9,190,0Z"/>
    <path class="cls-9" d="M1920,913.9v54.5l-272.6-31.1L1479.3,911c.3-1.2.5-2.4.7-3.7l168.1,6.9Q1784.2,914.1,1920,913.9Z"/>
    <polygon class="cls-5" points="1336.7 889.8 1335.5 890.7 1336.5 889.6 1336.7 889.8"/>
    <path class="cls-9" d="M1218.6,355.9c.1.7.3.7,0,0-21.7-46.4-91.6-45.6-91.6-45.6s-14-75.3-47-134.9c-30.4-54.8-40.2-71.2-67-104.7-.1,0-19.9-21.2-20-21.2-5.1-5.3-5-5.3-15.5-16,92.5,33.7,109.3,53.4,129.1,67,43.6,31.9,71,84.3,85.6,126.5C1211.4,282.6,1213,308,1218.6,355.9Z"/>
    <polygon class="cls-5" points="1336.7 889.8 1335.5 890.7 1336.5 889.6 1336.7 889.8"/>
    <path class="cls-9" d="M890.9,343.3c-79.9-56-99.6-1.8-102.7-12.5C744.4,181.1,556.6,160.3,446.9,170.3c-60.5,5.5-128,26.8-214.8,63.6,103-91.3,300.7-181.1,506.4-75.6,56.4,33.8,104.3,74.7,132.8,130.8C877.7,301.9,885.6,326.3,890.9,343.3Z"/>
    <path class="cls-6" d="M432.6,1079.1H224.8c-41.7-50.7-55.9-75.6-78-112-5.5-9.1-7.6-20.5-12.4-30.1,2.3-1.4,34.9,37.9,84.4,71.9,0,0-109.9-178.6-120.4-309.4,70,128.5,103.5,175,140.7,228.8C315.3,1034.8,376.9,1057.3,432.6,1079.1Z"/>
  </g>
</svg>
