<?xml version="1.0" encoding="utf-8"?>
<!-- Generator: Adobe Illustrator 24.0.0, SVG Export Plug-In . SVG Version: 6.00 Build 0)  -->
<svg version="1.1" id="Layer_1" xmlns="http://www.w3.org/2000/svg" xmlns:xlink="http://www.w3.org/1999/xlink" x="0px" y="0px"
	 viewBox="0 0 1920 1080" style="enable-background:new 0 0 1920 1080;" xml:space="preserve">
<style type="text/css">
	.st0{fill:#27546B;}
	.st1{fill:url(#SVGID_1_);}
	.st2{fill:url(#SVGID_2_);}
	.st3{fill:#467F8E;}
	.st4{fill:#007991;}
	.st5{fill:url(#SVGID_3_);}
	.st6{fill:url(#SVGID_4_);}
	.st7{fill:#78FFD6;}
</style>
<g>
	<polygon class="st0" points="1336.5,889.8 1335.3,890.7 1336.3,889.7 	"/>
	<linearGradient id="SVGID_1_" gradientUnits="userSpaceOnUse" x1="188.7072" y1="621.9225" x2="1919.787" y2="621.9225">
		<stop  offset="0" style="stop-color:#007991"/>
		<stop  offset="1" style="stop-color:#78FFD6"/>
	</linearGradient>
	<path class="st1" d="M1919.8,998.7v54.5c-0.3-0.1-0.7-0.1-1-0.1c-0.1,0-0.1-0.1-0.2-0.1c-96.1-12.5-192.1-25.1-288.2-37.6
		c-17.5-2.7-35.1-5.6-52.6-8.4c-246.1-39.6-490.4-86.5-732.2-145.4c-16.8-4.1-33.6-8.2-50.3-12.4c3.5,4.7,7.3,8.2,11.5,11
		c2.8,1.9,5.8,3.4,8.8,4.5c0.1,0,0.1,0.1,0.3,0.1c70.4,27.1,139.8,56.5,210,83.8c0.2,0.1,0.3,0.1,0.5,0.2
		c46.2,17.9,92.8,35,140.2,49.9c79.6,25.1,255.3,81,255.3,81s-589.7,1.5-600-2.2C660.8,1020.3,499.9,943,368.6,838.7
		c-109.2-86.8-189-188.2-179-326.3c8.8-120.1,60.7-222.3,171.8-295.9c18.5-12.3,69-37.8,99.3-47.2c0,0,0,0,0.1,0
		c4.7-1.5,8.9-2.5,12.4-3c41.6-6.5,124.3-1.8,199,36.5c0.1,0.1,0.2,0.1,0.3,0.1c30.4,15.6,59.4,36.7,83.8,64.9
		c0.1,0.1,0.2,0.2,0.3,0.4c11.7,13.5,22.3,28.7,31.5,45.6c7.8,14.4,25,4.1,41.6-0.2c15.7-4.1,18,7,35.1,7.4c0.3,2.4,0.5,4.8,0.8,7.3
		c0.4,4.2,0.9,8.4,2.2,12.3c37,111.4,2.9,190.8-108.6,251.4c-10.3,5.6-21.8,9.4-32.8,14.1c109.4-88.4,105.3-193.6,103.3-193.9
		c0,0-6.2,51.8-60.5,116.3c0.3-3.1,6-27.2,8.1-40.7c13.4-86.7-20.5-142.7-73.1-167c-83.9-38.8-179.5-30.3-233.9,26
		c-88.5,91.6-100.3,209.7,22.7,299.4c88.9,64.8,191.7,105.4,297.6,140.8c168.3,56.1,343,90.7,518.2,123.4
		C1512.4,939.8,1716.1,969.3,1919.8,998.7z"/>
	<linearGradient id="SVGID_2_" gradientUnits="userSpaceOnUse" x1="-0.1987" y1="227.0165" x2="1008.0263" y2="227.0165">
		<stop  offset="0" style="stop-color:#007991"/>
		<stop  offset="1" style="stop-color:#78FFD6"/>
	</linearGradient>
	<path class="st2" d="M987.3,415.3c-6.9-32.7-10.7-57.7-17.4-82c-27-97.5-75.2-182.9-175.1-237.7c-77.9-42.7-163-53.2-252.3-44.5
		C295.7,74.9,140,206.3,32.8,394.8c-11.2,19.6-22,39.5-33,59.2V266.4c86.3-85,182.9-158.7,297.3-212.3c40.5-19,82.2-36.1,123.3-54
		h447.8c22.5,18.2,48.9,40.6,83.9,86.7C1026,184.2,1014.2,297.1,987.3,415.3z"/>
	<path class="st3" d="M251.3,944.3c-0.1,0-0.2-0.1-0.3-0.1c-0.1-0.1-0.1-0.3-0.2-0.4L251.3,944.3z"/>
	<path class="st4" d="M420.4,0c-41.2,18-82.8,35.1-123.4,54C182.7,107.7,86.1,181.3-0.2,266.4c0-14.1,0-28.2,0-42.4
		c7.9-8.3,16.3-16.4,23.6-25.1C87.9,122.3,162.4,54.8,250.8,0C307.4,0,363.9,0,420.4,0z"/>
	<path class="st4" d="M1919.8,1079.7H1422c-0.3,0-186.4-55.6-260.7-81.9C1040.9,955.2,848,887.1,792.5,852c-1.8-1.2-0.4-3.7,1.7-3.1
		c272.8,68.2,557.7,122.8,836.1,166.5c96.1,12.6,289.4,37.8,289.4,37.8V1079.7z"/>
	<linearGradient id="SVGID_3_" gradientUnits="userSpaceOnUse" x1="367.9937" y1="986.1044" x2="705.3843" y2="986.1044">
		<stop  offset="0" style="stop-color:#007991"/>
		<stop  offset="1" style="stop-color:#78FFD6"/>
	</linearGradient>
	<path class="st5" d="M705.4,1079.2h-135c-50.3-40-74.1-57.9-123.2-99c-21-17.7-65.8-62.3-79.3-87.1c10.8,7.6,21.8,19.7,64.7,46.5
		C509.1,987.5,695.8,1074.1,705.4,1079.2z"/>
	<linearGradient id="SVGID_4_" gradientUnits="userSpaceOnUse" x1="-0.1987" y1="112.0165" x2="250.826" y2="112.0165">
		<stop  offset="0" style="stop-color:#007991"/>
		<stop  offset="1" style="stop-color:#78FFD6"/>
	</linearGradient>
	<path class="st6" d="M250.8,0C162.4,54.8,87.9,122.4,23.4,198.9c-7.3,8.7-15.7,16.7-23.6,25.1v-60.5C53,99.6,117.2,46,189.8,0
		H250.8z"/>
	<path class="st7" d="M1919.8,914v54.5c-90.8-10.4-181.8-20.8-272.6-31.1c-56-8.8-112.1-17.6-168.1-26.3c0.3-1.2,0.5-2.4,0.7-3.7
		c56,2.4,112.1,4.7,168.2,7C1738.6,914.2,1829.2,914.1,1919.8,914z"/>
	<polygon class="st3" points="1336.5,889.8 1335.3,890.7 1336.3,889.7 	"/>
	<path class="st7" d="M1218.4,355.9C1218.5,356.7,1218.7,356.6,1218.4,355.9c-21.7-46.4-91.6-45.6-91.6-45.6s-14-75.3-47.1-134.9
		c-30.4-54.8-40.2-71.2-67-104.7c0,0-19.9-21.2-19.9-21.3c-5.1-5.3-5.1-5.3-15.6-15.9c92.6,33.7,109.3,53.3,129.1,67
		c43.6,31.9,71,84.3,85.6,126.5C1211.2,282.7,1212.8,308.1,1218.4,355.9z"/>
	<polygon class="st3" points="1336.5,889.8 1335.3,890.7 1336.3,889.7 	"/>
	<path class="st7" d="M890.7,343.4c-79.9-56-99.6-1.9-102.7-12.5c-43.8-149.7-231.6-170.5-341.3-160.5
		c-60.5,5.5-128,26.8-214.9,63.6c103.1-91.3,300.7-181.1,506.4-75.6c56.4,33.8,104.3,74.7,132.8,130.8
		C877.5,301.9,885.4,326.3,890.7,343.4z"/>
	<path class="st4" d="M432.4,1079.2H224.6c-41.8-50.7-55.9-75.6-78-112c-5.5-9.1-7.6-20.5-12.4-30.1c2.3-1.4,34.9,37.9,84.4,71.9
		c0,0-109.9-178.6-120.5-309.4c70,128.5,103.5,175,140.8,228.8C315.1,1034.9,376.7,1057.4,432.4,1079.2z"/>
</g>
</svg>
