<?xml version="1.0" encoding="utf-8"?>
<!-- Generator: Adobe Illustrator 24.0.0, SVG Export Plug-In . SVG Version: 6.00 Build 0)  -->
<svg version="1.1" id="Layer_1" xmlns="http://www.w3.org/2000/svg" xmlns:xlink="http://www.w3.org/1999/xlink" x="0px" y="0px"
	 viewBox="0 0 1080 1920" style="enable-background:new 0 0 1080 1920;" xml:space="preserve">
<style type="text/css">
	.st0{fill:#27546B;}
	.st1{fill:url(#SVGID_1_);}
	.st2{fill:url(#SVGID_2_);}
	.st3{fill:#467F8E;}
	.st4{fill:#007991;}
	.st5{fill:url(#SVGID_3_);}
	.st6{fill:url(#SVGID_4_);}
	.st7{fill:#78FFD6;}
</style>
<g>
	<polygon class="st0" points="889.4,583.2 890.3,584.4 889.2,583.4 	"/>
	
		<linearGradient id="SVGID_1_" gradientUnits="userSpaceOnUse" x1="-231.4594" y1="1041.6826" x2="1499.6205" y2="1041.6826" gradientTransform="matrix(6.123234e-17 -1 1 6.123234e-17 -420.2392 1499.5157)">
		<stop  offset="0" style="stop-color:#007991"/>
		<stop  offset="1" style="stop-color:#78FFD6"/>
	</linearGradient>
	<path class="st1" d="M998.2-0.1h54.5c-0.1,0.3-0.1,0.7-0.1,1c0,0.1-0.1,0.1-0.1,0.2c-12.5,96.1-25.1,192.1-37.6,288.2
		c-2.7,17.5-5.6,35.1-8.4,52.6c-39.6,246.1-86.5,490.4-145.4,732.2c-4.1,16.8-8.2,33.6-12.4,50.3c4.7-3.5,8.2-7.3,11-11.5
		c1.9-2.8,3.4-5.8,4.5-8.8c0-0.1,0.1-0.1,0.1-0.3c27.1-70.4,56.5-139.8,83.8-210c0.1-0.2,0.1-0.3,0.2-0.5
		c17.9-46.2,35-92.8,49.9-140.2c25.1-79.6,81-255.3,81-255.3s1.5,589.7-2.2,600c-57.3,161.2-134.6,322.1-238.9,453.4
		c-86.8,109.2-188.2,189-326.3,179c-120.1-8.8-222.3-60.7-295.9-171.8c-12.3-18.5-37.8-69-47.2-99.3c0,0,0,0,0-0.1
		c-1.5-4.7-2.5-8.9-3-12.4c-6.5-41.6-1.8-124.3,36.5-199c0.1-0.1,0.1-0.2,0.1-0.3c15.6-30.4,36.7-59.4,64.9-83.8
		c0.1-0.1,0.2-0.2,0.4-0.3c13.5-11.7,28.7-22.3,45.6-31.5c14.4-7.8,4.1-25-0.2-41.6c-4.1-15.7,7-18,7.4-35.1
		c2.4-0.3,4.8-0.5,7.3-0.8c4.2-0.4,8.4-0.9,12.3-2.2c111.4-37,190.8-2.9,251.4,108.6c5.6,10.3,9.4,21.8,14.1,32.8
		C517.1,1084,412,1088.1,411.7,1090.1c0,0,51.8,6.2,116.3,60.5c-3.1-0.3-27.2-6-40.7-8.1c-86.7-13.4-142.7,20.5-167,73.1
		c-38.8,83.9-30.3,179.5,26,233.9c91.6,88.5,209.7,100.3,299.4-22.7c64.8-88.9,105.4-191.7,140.8-297.6
		c56.1-168.3,90.7-343,123.4-518.2C939.3,407.3,968.8,203.6,998.2-0.1z"/>
	
		<linearGradient id="SVGID_2_" gradientUnits="userSpaceOnUse" x1="-420.3653" y1="646.7766" x2="587.8597" y2="646.7766" gradientTransform="matrix(6.123234e-17 -1 1 6.123234e-17 -420.2392 1499.5157)">
		<stop  offset="0" style="stop-color:#007991"/>
		<stop  offset="1" style="stop-color:#78FFD6"/>
	</linearGradient>
	<path class="st2" d="M414.8,932.3c-32.7,6.9-57.7,10.7-82,17.4c-97.5,27-182.9,75.2-237.7,175.1c-42.7,77.9-53.2,163-44.5,252.3
		c23.8,246.8,155.3,402.5,343.7,509.7c19.6,11.2,39.5,22,59.2,33H265.9c-85-86.3-158.7-182.9-212.3-297.3
		c-19-40.5-36.1-82.2-54-123.3v-447.8c18.2-22.5,40.6-48.9,86.7-83.9C183.7,893.7,296.6,905.5,414.8,932.3z"/>
	<path class="st3" d="M943.8,1668.4c0,0.1-0.1,0.2-0.1,0.3c-0.1,0.1-0.3,0.1-0.4,0.2L943.8,1668.4z"/>
	<path class="st4" d="M-0.4,1499.2c18,41.2,35.1,82.8,54,123.4c53.6,114.4,127.2,211,212.3,297.3c-14.1,0-28.2,0-42.4,0
		c-8.3-7.9-16.4-16.3-25.1-23.6c-76.6-64.5-144.1-139-198.9-227.4C-0.4,1612.3-0.4,1555.8-0.4,1499.2z"/>
	<path class="st4" d="M1079.3-0.1v497.8c0,0.3-55.6,186.4-81.9,260.7c-42.6,120.4-110.8,313.3-145.8,368.8c-1.2,1.8-3.7,0.4-3.1-1.7
		c68.2-272.8,122.8-557.7,166.5-836.1c12.6-96.1,37.8-289.4,37.8-289.4H1079.3z"/>
	
		<linearGradient id="SVGID_3_" gradientUnits="userSpaceOnUse" x1="-52.1729" y1="1405.8645" x2="285.2178" y2="1405.8645" gradientTransform="matrix(6.123234e-17 -1 1 6.123234e-17 -420.2392 1499.5157)">
		<stop  offset="0" style="stop-color:#007991"/>
		<stop  offset="1" style="stop-color:#78FFD6"/>
	</linearGradient>
	<path class="st5" d="M1078.7,1214.3v135c-40,50.3-57.9,74.1-99,123.2c-17.7,21-62.3,65.8-87.1,79.3c7.6-10.8,19.7-21.8,46.5-64.7
		C987,1410.6,1073.6,1223.9,1078.7,1214.3z"/>
	
		<linearGradient id="SVGID_4_" gradientUnits="userSpaceOnUse" x1="-420.3653" y1="531.7766" x2="-169.3405" y2="531.7766" gradientTransform="matrix(6.123234e-17 -1 1 6.123234e-17 -420.2392 1499.5157)">
		<stop  offset="0" style="stop-color:#007991"/>
		<stop  offset="1" style="stop-color:#78FFD6"/>
	</linearGradient>
	<path class="st6" d="M-0.4,1668.9c54.8,88.5,122.3,162.9,198.9,227.4c8.7,7.3,16.7,15.7,25.1,23.6H163
		c-63.9-53.2-117.5-117.4-163.4-190V1668.9z"/>
	<path class="st7" d="M913.5-0.1H968c-10.4,90.8-20.8,181.8-31.1,272.6c-8.8,56-17.6,112.1-26.3,168.1c-1.2-0.3-2.4-0.5-3.7-0.7
		c2.4-56,4.7-112.1,7-168.2C913.7,181.1,913.6,90.5,913.5-0.1z"/>
	<polygon class="st3" points="889.4,583.2 890.3,584.4 889.2,583.4 	"/>
	<path class="st7" d="M355.4,701.3C356.2,701.2,356.1,700.9,355.4,701.3c-46.4,21.7-45.6,91.6-45.6,91.6s-75.3,14-134.9,47.1
		c-54.8,30.4-71.2,40.2-104.7,67c0,0-21.2,19.9-21.3,19.9c-5.3,5.1-5.3,5.1-15.9,15.6c33.7-92.6,53.3-109.3,67-129.1
		c31.9-43.6,84.3-71,126.5-85.6C282.2,708.5,307.6,706.9,355.4,701.3z"/>
	<polygon class="st3" points="889.4,583.2 890.3,584.4 889.2,583.4 	"/>
	<path class="st7" d="M342.9,1029c-56,79.9-1.9,99.6-12.5,102.7c-149.7,43.8-170.5,231.6-160.5,341.3c5.5,60.5,26.8,128,63.6,214.9
		c-91.3-103.1-181.1-300.7-75.6-506.4c33.8-56.4,74.7-104.3,130.8-132.8C301.5,1042.1,325.9,1034.3,342.9,1029z"/>
	<path class="st4" d="M1078.7,1487.3v207.8c-50.7,41.8-75.6,55.9-112,78c-9.1,5.5-20.5,7.6-30.1,12.4c-1.4-2.3,37.9-34.9,71.9-84.4
		c0,0-178.6,109.9-309.4,120.5c128.5-70,175-103.5,228.8-140.8C1034.4,1604.6,1056.9,1542.9,1078.7,1487.3z"/>
</g>
</svg>
